# xmcd
#
# Track frame offsets:
# 150
# 15525
# 30775
# 45075
# 64337
# 85362
# 100862
# 121050
# 143637
# 153312
# 166962
# 181512
#
# Disc length: 2630 seconds
#
#
# Revision: 0
# Processed by: cddbd v1.5.1PL0 Copyright (c) Steve Scherf et al.
# Submitted via: FreeRIP 2.80 
#
DISCID=7e0a440c
DTITLE=Louis Armstrong - Take It Sach
DYEAR=1900
DGENRE=Blues
TTITLE0=Mack The Knife
TTITLE1=Keepin' Out Of Mischief Now
TTITLE2=Cabaret
TTITLE3=Long Gone (From The Bowling Green)
TTITLE4=Ain't Misbehavin'
TTITLE5=When It's Sleepy Time Down South
TTITLE6=I'm Crazy About My Baby
TTITLE7=Twelth Street Rag
TTITLE8=When The Red, Red Robin Comes Bob, Bob, Bobbin' Along
TTITLE9=The Memphis Blues
TTITLE10=I've Got A Feeling I'm Falling
TTITLE11=On The Sunny Side Of The Street
EXTD=The Original Vocal Recordings
EXTT0=
EXTT1=
EXTT2=
EXTT3=
EXTT4=
EXTT5=
EXTT6=
EXTT7=
EXTT8=
EXTT9=
EXTT10=
EXTT11=
PLAYORDER=
